<?xml version="1.0" encoding="UTF-8" standalone="no"?>
<!-- Generator: Gravit.io -->
<svg xmlns="http://www.w3.org/2000/svg" xmlns:xlink="http://www.w3.org/1999/xlink" style="isolation:isolate" viewBox="0 0 160 160" width="160pt" height="160pt"><defs><clipPath id="_clipPath_vdpnPUIAxNOAVGzmQzOwEO4PqWHNCO1u"><rect width="160" height="160"/></clipPath></defs><g clip-path="url(#_clipPath_vdpnPUIAxNOAVGzmQzOwEO4PqWHNCO1u)"><rect width="160" height="160" style="fill:rgb(0,0,0)" fill-opacity="0"/><path d=" M 96.91 55.328 C 93.55 55.162 92.489 48.453 92.241 46.177 C 91.751 41.668 90.765 30.263 98.24 31.316 C 104.802 32.242 103.498 38.62 102.581 43.375 C 102.07 46.028 101.051 55.532 96.91 55.328 Z  M 67.759 46.177 C 67.511 48.453 66.45 55.162 63.09 55.328 C 58.948 55.532 57.931 46.028 57.419 43.375 C 56.502 38.62 55.198 32.242 61.76 31.316 C 69.236 30.263 68.249 41.668 67.759 46.177 Z  M 107.487 61.092 C 101.276 58.121 102.498 55.823 102.965 53.274 C 103.433 50.727 104.978 46.499 106.836 38.438 C 108.812 24.957 99.286 27.084 97.304 27.388 C 96.823 27.461 96.219 27.453 93.549 26.981 C 94.275 25.148 96.241 19.249 95.694 16.217 C 95.22 13.479 92.918 15.074 90.94 15.562 C 89.162 16 80.142 19.135 69.06 15.562 C 66.953 14.883 64.78 13.479 64.307 16.217 C 63.759 19.249 65.726 25.148 66.451 26.981 C 63.781 27.453 61.809 27.461 61.327 27.388 C 59.346 27.084 51.188 24.957 53.164 38.438 C 55.022 46.499 56.568 50.727 57.035 53.274 C 57.502 55.823 58.725 58.121 52.512 61.092 C 46.3 64.062 36.488 71.851 40.8 82.71 C 45.112 93.57 66.656 134.925 66.656 134.925 C 66.656 134.925 67.899 137.209 66.906 140.115 C 65.951 142.907 68.496 145.215 80 145.39 C 91.504 145.215 94.048 142.907 93.094 140.115 C 92.102 137.209 93.344 134.925 93.344 134.925 C 93.344 134.925 114.889 93.57 119.2 82.71 C 123.511 71.851 113.7 64.062 107.487 61.092 Z " fill="rgb(254,254,254)"/><path d=" M 68.472 139.568 C 68.472 143.138 69.872 143.835 80.004 143.982 C 90.136 143.835 91.535 143.138 91.535 139.568 L 68.472 139.568 Z " fill="rgb(55,53,53)"/><path d=" M 91.926 23.892 C 93.34 22.479 93.814 21.769 93.814 18.839 C 93.814 16.394 91.37 17.833 89.63 18.263 C 88.065 18.649 80.125 21.408 70.37 18.263 C 68.517 17.665 66.187 16.394 66.187 18.839 C 66.187 21.711 66.981 22.798 68.074 23.892 L 91.926 23.892 Z " fill="rgb(55,53,53)"/><path d=" M 96.91 55.328 C 93.55 55.162 92.489 48.453 92.241 46.177 C 91.751 41.668 90.765 30.263 98.24 31.316 C 104.802 32.242 103.498 38.62 102.581 43.375 C 102.07 46.028 101.051 55.532 96.91 55.328 Z  M 67.759 46.177 C 67.511 48.453 66.45 55.162 63.09 55.328 C 58.948 55.532 57.931 46.028 57.419 43.375 C 56.502 38.62 55.198 32.242 61.76 31.316 C 69.236 30.263 68.249 41.668 67.759 46.177 Z  M 107.487 61.092 C 101.276 58.121 102.498 55.823 102.965 53.274 C 103.433 50.727 104.978 46.499 106.836 38.438 C 108.812 24.957 99.286 27.084 97.304 27.388 C 96.823 27.461 96.219 27.453 93.549 26.981 C 94.275 25.148 96.241 19.249 95.694 16.217 C 95.22 13.479 92.918 15.074 90.94 15.562 C 89.162 16 80.142 19.135 69.06 15.562 C 66.953 14.883 64.78 13.479 64.307 16.217 C 63.759 19.249 65.726 25.148 66.451 26.981 C 63.781 27.453 61.809 27.461 61.327 27.388 C 59.346 27.084 51.188 24.957 53.164 38.438 C 55.022 46.499 56.568 50.727 57.035 53.274 C 57.502 55.823 58.725 58.121 52.512 61.092 C 46.3 64.062 36.488 71.851 40.8 82.71 C 45.112 93.57 66.656 134.925 66.656 134.925 C 66.656 134.925 67.899 137.209 66.906 140.115 C 65.951 142.907 68.496 145.215 80 145.39 C 91.504 145.215 94.048 142.907 93.094 140.115 C 92.102 137.209 93.344 134.925 93.344 134.925 C 93.344 134.925 114.889 93.57 119.2 82.71 C 123.511 71.851 113.7 64.062 107.487 61.092 Z " fill-rule="evenodd" fill="none" vector-effect="non-scaling-stroke" stroke-width="0.283" stroke="rgb(254,254,254)" stroke-linejoin="miter" stroke-linecap="butt" stroke-miterlimit="10"/><clipPath id="_clipPath_pkxi706WfpfhnhzQucFDZVfU33bqRQnv"><path d=" M 78.589 145.407 C 91.322 145.407 94.087 143.02 93.094 140.115 C 92.101 137.209 93.344 134.925 93.344 134.925 C 93.344 134.925 114.889 93.57 119.2 82.71 C 123.511 71.851 113.7 64.062 107.487 61.092 C 101.276 58.121 102.498 55.823 102.965 53.275 C 103.433 50.727 104.978 46.499 106.836 38.438 C 108.812 24.957 99.286 27.084 97.304 27.388 C 96.823 27.461 96.219 27.453 93.549 26.981 C 94.275 25.148 96.241 19.249 95.694 16.217 C 95.22 13.479 92.918 15.074 90.94 15.562 C 89.162 16 80.142 19.135 69.06 15.562 C 66.953 14.883 64.78 13.479 64.307 16.217 C 63.759 19.249 65.726 25.148 66.451 26.981 C 63.781 27.453 61.809 27.461 61.328 27.388 C 59.346 27.084 51.188 24.957 53.164 38.438 C 55.022 46.499 56.568 50.727 57.035 53.275 C 57.502 55.823 58.725 58.121 52.512 61.092 C 46.3 64.062 36.488 71.851 40.8 82.71 C 45.112 93.57 66.656 134.925 66.656 134.925 C 66.656 134.925 67.899 137.209 66.906 140.115 C 65.913 143.02 68.678 145.407 81.411 145.407" fill="rgb(255,255,255)"/></clipPath><g clip-path="url(#_clipPath_pkxi706WfpfhnhzQucFDZVfU33bqRQnv)"><path d=" M 122.134 94.285 L 37.47 94.285 L 37.47 67.365 L 122.134 67.365 L 122.134 94.285 Z " fill="rgb(55,53,53)"/><path d=" M 37.47 70.687 L 37.47 91.057 L 122.134 91.057 L 122.134 70.687 L 37.47 70.687 Z " fill="rgb(198,52,55)"/></g><path d=" M 65.552 87.489 L 68.327 87.489 L 68.327 73.842 L 66.284 73.842 C 66.015 75.346 64.897 76.04 63.085 76.04 L 62.834 76.04 L 62.834 77.851 L 65.552 77.851 L 65.552 87.489 Z " fill="rgb(254,254,254)"/><path d=" M 57.628 87.489 L 60.404 87.489 L 60.404 73.842 L 58.361 73.842 C 58.09 75.346 56.973 76.04 55.16 76.04 L 54.91 76.04 L 54.91 77.851 L 57.628 77.851 L 57.628 87.489 Z " fill="rgb(254,254,254)"/><path d=" M 92.471 80.241 C 92.471 76.733 92.76 75.654 93.974 75.654 C 95.169 75.654 95.478 76.444 95.478 79.875 L 95.478 81.359 C 95.478 84.868 95.188 85.947 93.974 85.947 C 92.779 85.947 92.471 85.157 92.471 81.726 L 92.471 80.241 Z  M 93.974 87.759 C 98.041 87.759 98.253 84.27 98.253 80.473 C 98.253 75.635 97.27 73.842 93.974 73.842 C 89.906 73.842 89.695 77.35 89.695 81.128 C 89.695 85.966 90.678 87.759 93.974 87.759 Z " fill="rgb(254,254,254)"/><path d=" M 111.578 87.489 L 114.354 87.489 L 114.354 73.842 L 112.311 73.842 C 112.041 75.346 110.924 76.04 109.111 76.04 L 108.861 76.04 L 108.861 77.851 L 111.578 77.851 L 111.578 87.489 Z " fill="rgb(254,254,254)"/><path d=" M 101.976 80.241 C 101.976 76.733 102.265 75.654 103.478 75.654 C 104.674 75.654 104.982 76.444 104.982 79.875 L 104.982 81.359 C 104.982 84.868 104.693 85.947 103.478 85.947 C 102.284 85.947 101.976 85.157 101.976 81.726 L 101.976 80.241 Z  M 103.478 87.759 C 107.546 87.759 107.758 84.27 107.758 80.473 C 107.758 75.635 106.775 73.842 103.478 73.842 C 99.412 73.842 99.2 77.35 99.2 81.128 C 99.2 85.966 100.183 87.759 103.478 87.759 Z " fill="rgb(254,254,254)"/><path d=" M 83.023 80.241 C 83.023 76.733 83.312 75.654 84.526 75.654 C 85.721 75.654 86.029 76.444 86.029 79.875 L 86.029 81.359 C 86.029 84.868 85.74 85.947 84.526 85.947 C 83.331 85.947 83.023 85.157 83.023 81.726 L 83.023 80.241 Z  M 84.526 87.759 C 88.593 87.759 88.805 84.27 88.805 80.473 C 88.805 75.635 87.822 73.842 84.526 73.842 C 80.459 73.842 80.247 77.35 80.247 81.128 C 80.247 85.966 81.23 87.759 84.526 87.759 Z " fill="rgb(254,254,254)"/><path d=" M 73.411 80.241 C 73.411 76.733 73.7 75.654 74.915 75.654 C 76.111 75.654 76.418 76.444 76.418 79.875 L 76.418 81.359 C 76.418 84.868 76.129 85.947 74.915 85.947 C 73.72 85.947 73.411 85.157 73.411 81.726 L 73.411 80.241 Z  M 74.915 87.759 C 78.982 87.759 79.195 84.27 79.195 80.473 C 79.195 75.635 78.211 73.842 74.915 73.842 C 70.848 73.842 70.636 77.35 70.636 81.128 C 70.636 85.966 71.619 87.759 74.915 87.759 Z " fill="rgb(254,254,254)"/><path d=" M 48.025 80.241 C 48.025 76.733 48.314 75.654 49.528 75.654 C 50.723 75.654 51.031 76.444 51.031 79.875 L 51.031 81.359 C 51.031 84.868 50.742 85.947 49.528 85.947 C 48.333 85.947 48.025 85.157 48.025 81.726 L 48.025 80.241 Z  M 49.528 87.759 C 53.595 87.759 53.807 84.27 53.807 80.473 C 53.807 75.635 52.824 73.842 49.528 73.842 C 45.461 73.842 45.249 77.35 45.249 81.128 C 45.249 85.966 46.232 87.759 49.528 87.759 Z " fill="rgb(254,254,254)"/></g></svg>